<?xml version="1.0" standalone="no"?>
<!DOCTYPE svg PUBLIC "-//W3C//DTD SVG 20010904//EN"
 "http://www.w3.org/TR/2001/REC-SVG-20010904/DTD/svg10.dtd">
<svg version="1.0" xmlns="http://www.w3.org/2000/svg"
 width="128.000000pt" height="128.000000pt" viewBox="0 0 128.000000 128.000000"
 preserveAspectRatio="xMidYMid meet">
<metadata>
Created by potrace 1.11, written by Peter Selinger 2001-2013
</metadata>
<g transform="translate(0.000000,128.000000) scale(0.100000,-0.100000)"
fill="#000000" stroke="none">
<path d="M463 1264 c-18 -9 -48 -38 -67 -64 -26 -37 -43 -49 -78 -59 -54 -15
-91 -46 -105 -86 -6 -19 -10 -194 -9 -475 1 -519 -2 -502 95 -553 l55 -28 300
3 301 3 42 28 c80 55 78 43 78 552 0 480 -2 497 -49 529 -12 8 -42 20 -66 27
-32 10 -51 24 -76 59 -44 62 -73 76 -148 72 -104 -5 -129 -5 -186 2 -42 5 -63
3 -87 -10z m123 -126 c23 -23 24 -65 3 -93 -28 -35 -80 -35 -108 1 -27 34 -26
54 1 89 18 23 26 26 56 21 20 -3 41 -11 48 -18z m211 0 c29 -27 29 -57 2 -92
-27 -35 -72 -35 -104 0 -61 66 36 154 102 92z m-387 -128 c11 -11 20 -23 21
-27 0 -5 2 -16 4 -25 5 -26 -40 -68 -72 -68 -39 1 -63 22 -70 63 -4 27 -1 38
18 56 29 26 73 27 99 1z m559 -6 c27 -34 27 -64 1 -92 -37 -40 -116 -18 -121
33 -3 35 0 44 21 65 29 29 74 26 99 -6z m-267 -130 c89 -29 180 -134 180 -209
0 -45 -28 -94 -60 -107 -38 -14 -336 -13 -372 2 -116 48 -59 230 95 304 57 28
95 30 157 10z"/>
</g>
</svg>
